<mxfile host="65bd71144e">
    <diagram id="HIP3nbAZw_EuaXWnEj3U" name="Page-1">
        <mxGraphModel dx="606" dy="514" grid="1" gridSize="10" guides="1" tooltips="1" connect="1" arrows="1" fold="1" page="1" pageScale="1" pageWidth="850" pageHeight="1100" background="#ffffff" math="0" shadow="0">
            <root>
                <mxCell id="0"/>
                <mxCell id="1" parent="0"/>
                <mxCell id="7" value="http://ics2o.mths.ca" style="swimlane;whiteSpace=wrap;html=1;" parent="1" vertex="1">
                    <mxGeometry x="40" y="40" width="760" height="480" as="geometry"/>
                </mxCell>
                <mxCell id="9" value="What Movies Can You Watch?" style="whiteSpace=wrap;html=1;fillColor=#b0e3e6;strokeColor=#0e8088;fontColor=#000000;fontSize=21;" vertex="1" parent="7">
                    <mxGeometry y="20" width="760" height="60" as="geometry"/>
                </mxCell>
                <mxCell id="10" value="Enter your age below to see what rated movies you can watch:" style="text;html=1;align=center;verticalAlign=middle;resizable=0;points=[];autosize=1;strokeColor=none;fillColor=none;fontSize=21;fontColor=#000000;" vertex="1" parent="7">
                    <mxGeometry y="80" width="610" height="40" as="geometry"/>
                </mxCell>
                <mxCell id="11" value="" style="rounded=1;whiteSpace=wrap;html=1;fontSize=21;fillColor=#eeeeee;strokeColor=#36393d;" vertex="1" parent="7">
                    <mxGeometry x="10" y="120" width="240" height="30" as="geometry"/>
                </mxCell>
                <mxCell id="12" value="Calculate" style="rounded=1;whiteSpace=wrap;html=1;fontSize=21;fillColor=#eeeeee;strokeColor=#36393d;fontColor=#000000;" vertex="1" parent="7">
                    <mxGeometry x="10" y="180" width="120" height="40" as="geometry"/>
                </mxCell>
                <mxCell id="13" value="You can watch an R rated movie alone!" style="text;html=1;align=center;verticalAlign=middle;resizable=0;points=[];autosize=1;strokeColor=none;fillColor=none;fontSize=21;fontColor=#000000;" vertex="1" parent="7">
                    <mxGeometry x="10" y="250" width="390" height="40" as="geometry"/>
                </mxCell>
                <mxCell id="14" value="" style="shape=image;verticalLabelPosition=bottom;labelBackgroundColor=default;verticalAlign=top;aspect=fixed;imageAspect=0;image=data:image/jpeg,/9j/4AAQSkZJRgABAQAAAQABAAD/2wCEAAkGBxMTEhUTEhMVFhUXFxsaGhcYGhgYGxcYIBgbGxseICMYHikhGB4oIhwYIjIjJiosLy8vGyA0OTQuOCkuLywBCgoKDg0OHBAQHC4nISYuMCwuLzAwMC4uLi4uODYwLi8uMDE2MDA2NjAsLi4uMC42MC8uLiwwLi4uMDAuLi4uLv/AABEIAOwA1gMBIgACEQEDEQH/xAAcAAABBQEBAQAAAAAAAAAAAAAGAAEEBQcDAgj/xABFEAABAgQDBAUJBgUEAgIDAAABAhEAAyExBBJBBRMiUQYyYXGBFCMzQlKRobHBByQ0YnKCorLC0eFDY5LwRHPS8RWTo//EABoBAAIDAQEAAAAAAAAAAAAAAAADAgQFAQb/xAAyEQACAQIEAwYGAgIDAAAAAAABAgADEQQSITEFQVETImFxgZEjMjOhsfDB0RThQoLx/9oADAMBAAIRAxEAPwDWQvymnVy15u/uhZ975m2X1rvlpaFMV5RRHDlqX1fuh1K3g3SaKTcmxahtWCE85n+7eGbu4rf5hyvJ5i+amazZuyFmceT+tbNpTi74QmZBuTVSqBWnFbtghHK9xwdbNV7NpDH7t+bN4M3v5w6F7ngVxFVQRpprCl/d+vxZrNo3f3wQjFG4871s1Gsz8V/CHKMv3i71y99L/wCIZKdyd4riCqADR6690LLlO/NUmuXWvwghHyZvvHKuXupfw5QwTvvO9XLRru3FfxhynMd+OqK5daU7tIZQ3p3qaJTQg3LV074IRAeU16uXxd/dyhBflHD1ctXu+nZDTB5RVHDlu+r93dEHFY9U5hKQEpB66j1jagTcdpIhdSqqfNJKpbaTgveeYtlpmu+WlogrExSlSgsploOWgDrVRRJcFgHAYcokYecqYncqSEzEgFxVKk2BGuhpo3cY5IT5zJLICkgFa+slTuwbmwbM4sL6JrNmQFTz9ZNBYm8aVsRJfehMwk0JFksKfl1trWIyxiMNJz7wKyAFactFAAZqvmzM9eekEssizh2H/fgYqts4Iq45ZAmJqArilqNxmSaO9QoVB5ihW1PKMy7yQe5sZ1I8mr1s37Wb384cjdee62fSzPxX1tFVs0zVICpayy6KKgnPLKXcCmUlwU1Ba9Y6YeaqRNVn3s1JQ44MxBJL1SANLGtYauIU20MgaZEscjfePHL38N/HlCy5/P2auX9Pb/iOWGmpV95SXQSeGoIPVIINiDcdkdcuY78USK5daX7IsAgi4iyLRwjf+c6uWjXdq/WGH3n8uX9zv7mtCUnfHeJ4QmhB1aunfCmfeOpw5bvq9rd0dhEF7/zfVy1e7tT6wgvP5i2Wma/V7P8AMOte+4E8JTUk66aQxXnG4FFCmbSl+2CEbO33bwzd/Fbx5w5VuvM3zetZs3DbwhBbDyf1rZtK8XfrDpVuhulVUqxFg9BeCEYr8mp1s1eTN74UJC/J6L4s1Q2jd8KCEUwiZSRwkXbhcaWvCUQoZJdJo6xFCWoqovWEtv8Axr+s1aadaEWbzXpvW/qvS8EIqNux6b2tXueK9oQIAyLrNNlXIJ6tbiEWan4j4vr+XqvCDN5z0/q839W1IIRIIRSdxKPVJ4mHebVhpY3f4jifqvxs1720h0N/5HX9V6U/bS8JFfxP7Xp+rq+EEIyUlBzTuJB6oPExuKG1HhZSDnVWTom4Y24bR6Dv5/0fqu19OrWzw1X4/Qacm9W3FyghGYk50+h9mwax4bXeEoFRzSqSx1gOFyKmgvRoVX4fQa8m1/Nd4iYrGlK93hwClgVOWSHJFSQS5AsIg7qgu06qljYSVO84PMcLXbhqbWvrA5tHaSpUmSmVRSkCrOUgUYDm7jwixnY3KpKSDJSxK2UcpPqcdCB1+VR3PP2bJkMMgQrISxcLyk1LEuQ94oVm7drKbW5x9MdmLsJWbA2biFOvFkkMyUFnILE5m0oOE9r8o9YuVknAYYICy+8DcIDcJVlsp7C5BOgjp00xsyXLRu1FIUSFKFDagfR6+6IOzMWs4dGKVVaXEz/dlpUQ/wCtIqDqxGtFtkB7MXuNbxgzEZ+ulpOwOL3UxSZ3CpaUnMVOlZBUCQSwFCOFgzHvLbT26hIOTzirMmoBNnIon59hiNj1oxEwM5QJYICgpNSo5ixFaBER5q1JUhJVLQEAhGc3LniAcaMkEnnd4U1VlBAOnIyQQE3O8stg4jdSwiahaXUpRmEJylS1FVQFEoDlg45O0Tdr47dslKd4s+oDxBPtWIA72fQvSKs49cv0oTMlmihlYhOpDUUG0aPUvbMhBKJaZswPxTUjOCrmS7qagtZmpDVqgJlJt57yBpkte0bYmIA3hmFgFKXMlqo2clixopLtxcwbWixw+KRNJmSZiFSU9ZKVAgcwQKV+MUOJVLxE0kVCAwBBSouxJIUxyghLOLgnlEWekyVicn1WCwPXlEjOk86VHIgQ2niioAtptecaiG56wuUkrOaTwoHWA4XNzQXo0KZ5z8Pwt1m4He1r2MOXB8z6P1u/XrVs0JdPw37mr+nreMaMqxLIXwyeFY6xHC4sai9WhEgjIik4XVYkjrVuYdTf6HX9ZuWvWpdoYs3B6fXm/rXpBCIM27Ppva1e44r2aHSQkZZtZh6pNSHomulYYM1fxHxfT8vVaHSzed9L6v8ATal3ghGSRL9PxE9V+Jhre0KElv8Ayb+q9Ka9WFBCJYEqsjiJv6zDS1ocgIGeXWYesm7PU0FRWGmJ8nqOLNStGbuhKTuhvhUq00GasEImDb0em9ntseG9oQAUN4uk0WTZyOrQ1MLKw8o1vl0rwwgjON+aFNcunDBCJCRM4p3CoWHVcXsb1hked9PwN1fVd79a9hDoRv8AjPDlowq+sQ8djgtIJScwLJSn1iQSXJsBld4izBRczoBJsJLSorOWbwoHVPVcigqaGjxw8sCiZTKVKSWzJBNu3WvKOOJxc1QSlUsXGUpUWzNZTigZy9bNqHj4LEKktLWhyEjKUEHNVq5srFyOd4qvidsvrpGrT6ybJ2eFoUVLmpcry8S0BCQohPDQGjE5gb8oqtiYpcxZWmSSgsFcSaEDRyM3bbTk5IJ20kS2C3zEPlSCotzoLdpilw+00oUvIl0lZIAC3QLHOlCCUOQSAztyivVK5l73n5yaXsdPKEqZUDoxipBVKVLUpfEpOUUWkqfM9k1IzPb3RaYbaIEjerUCGKnSGcOcoA52Dc4rJmCXiGVNUQXdKEgZUuGY0dVKGoBiVZgbZN4ILXzbTxL2mnIoYgZpZLiYpDoU9SNcoBJCSWcNEHH7WSqWqVhkg0yuAyEuDQBnUrklIMWU2UhJBxSpaashBIy0upjcnt6obUmIG28OiS65QSnMhlZWDIVMlpKkt1SxVUXD8ortntqfPrGplv8AtpO2QUlACXZIy8QYhg3cbVYmKrpFJTOSZktK3QDx8ORQGlSCauxA110mz+IS5STlSosoCnCEk5ewFokbYTlRL0RvBm5Bgcr8hmy+LRx+8hXkJ0HK9xKjZ8memRlUhy5Yk0SkjVgVUL0A10hto7RGFlSUpSCCgKL6hg7Nqal4IsKYWN2fKm5d4gKy9V9PdcdhpDBhzk0Os4aozd4aSsxMgGfLa6cyieSCkpAPeog/tPKB+YROBmzVcF0glkpT6tLEmlTzi727PRLzKQtpxIYBRJKqM6XLpa9LRQ4zZc2chEuUGSlShxOnhfgVWpGX4vEXFjYSa8iZZdHttolFUuSreIUHyB3SoMCBmbKCC/IZTzi1wW2ymYJW6KFLfK5zhbAlgwBCgHLNYUNDFKZGH2dLdlLmLDE6qap7EJr8rxBG1zOXLXLJlZFukslR3mUhlOCGKSW51qCGiwldkssg1INcges0JYEvilcSjcdZhewtWGKQkbxNZpum9T1qCsCUzbc3K0p5cwgibMayntKCnd6HMXABAqXyjmIxE7Dr8olTJhmI4iFLWreAVUlWYlwoOOx3DNFh8UikCIFAmagACN6fTez22HDe1YdICxnmUmDqps7VFDU1jxJIWkYoajME6NYfCsekp3o3xoU6Cxy1+sWYiJCRNrP4SLeq41veFCQjyip4ctKVd++FBCMhHk1TxZqUpaElO6O+NQrSxGasOhJlVncYNvWY69a0IAoO8mcUs9VN2eooaCkEI2Rj5RpfLrXhvCKM539gmuXXh7Y8TpoR51agJJNEk3cMAE2JerRwnY0KSubKIKJacypdUmgJqnQFvGINUVdzOhSYsfjpSmWtYQ1AkupStaBNfhHPEbQTiCgygStBJA9wOZyMvzqCxaIGDw7krWQVGqlW93IDQRORIUlYmICS6WUCWcXBcA9vvii1dqg20+8sCmq89Zc4eW4DpY8qH5RA2vIkBlTkJL8IKkZu4WLPDycVNKZxoVJDISLZsma5u7pGlrRDwmw5EyWCRmKwCqZ68zVWY6gn1TbsYNInMMqj3nALG5Mrtm7GUpKlZ5iZalEy0pJScnqZj1mZmToPhJwTyJoRMJWiaQErV1krZkpUfWBFAb6GKna+xcVOxCnCiMxyKdkJQ/C2iWDPq7xf7UkpWUSCp1OlSi7FkkFxq5IApWpOkVEG9lIsefOOJ6m9/tIO00JkBIXP4d5nMtW7DusqJAAzFlF7mL3Z8+WscC0q7iD8oGtoYUYdboBUJj5kk5lOA+bMsu1GLlqiPeyUzChLKMpNSEoYFRJfMos/cBo0CvlqbekGW67zr06whZEwDhAKT2Vce+scuhuHK5SxNQFIChuypINGOYBx1XbxJi0XiJ+XdlTDWdwhRT7LWCuamZmYOaQMalchJmy5iqM6Zi1rQoEtXOo5TVwQREmQCoanXcTiklMkj7Vw+7WBJSGyLWpGYpSkJZlhuqakMGf4wS7OlnIBMVnJFXCW7qCo73gZzSiFTFTVTJigEndkgl3ZKUuBl63WcXJN464HGzlylocpWhFsrKIYhJfMRViKV7RBTOV7236Tri6+Uk9JsBJlIRMDyxvEpKUOAsEuQyTRgFGnb2RyxG3ZaEpZQUCbJILJappoP8R66SYqXMkJWFJZC0ruLVQqh1AUS3ZAbO2LNxOIUCChANVEUyize0TfxgdrP3OclTUMvf5S32zjEzVIVJG8WklyBQJY0Js7swvekS9j4/OCaMC1Cq4u4UlJSQaMRpyZ/HkQlpRhpRIZIKl+sxp/yUQa6Ad0Rsds3JLUuUop9uuZxYlySygKvyEQBIJMkQpFvaRumExE3LkWCtBKSnWrW5l6N29kVmx8Nu5c7fuhMzKkBXCXGYuHq4JDd0WkjClASFS2QugPaRTMGo//ANs8c8TPkyV5ZilFTdYh8idBzA95NzBzvJg6ZRJWzJu/lyqh1DjIuCAMw7CS3c8SdpJwiUmVMYEhqJJKXF3Ad4jYSWU4hEyWgqBBCykOGLZSWvQk93hE/B9G80xS8QykuSEgniL3PIdn/TyzO2gv+AJC6rqTYSww2ImEImSkoSAlLBQUXZITRiGTShq9252eDm+UDfNkKDlUg1IUguQDqORin2jtqVLXuXKSwTmygpQSKOHDgUil2vPnDzKVLkpAdWRas05RJKllQYsSWYMzVowF1cQFJub209ZX7LMNrf1DpaPKajhy0rV3hQB9HtuTJazJnTlZMpUhaiQQQQCgkVXcEEuaKraGiyuIUi8WaDAw9Q4/E29V6116sJLu830Xq6j8tq2hIJX+I4QLPw1174ZJKjlmUlDqk0Bbq11pDomQMGjeq3hs5EsaIQ+nabk+GkT8VgCoAoISsUchwUnrJI1BFW5gRDZUubklAFKnUAqzBsxCh2mzGp0ibtTFKRL4SylKSgG7OamvIP8ACM8KAGzbjePJJtaVGCwEtc5Ut1KlygAErYgqchRp1gGArqTo0TZ+DMtwkplSWzKUGGXmEiyQaF9KsHLiRgcDLCs4BzV4syiS93csXYe4co4bVOeamWeqlImEe0okhPgMqj3tyheUKl7a30ksxLWlLOxe6rIzELUA0xMxlE0CgpVXs7mw7I57cmT5Cpc2Ws1J3jBkFThgU8iHD3vW0FK8IlaChVlBqX7x2i8QBKno4VSt4LZklACh2hZDHsqIW1NwPxbkZNagv/fOSNh7cTiEnhKVJbMLitiDqKGPG1cVKYomEGj5Tc8mGpppqIqJ0xaAJyAhEtK6pQwEwuUEOwK1AFRswy61In4eWubMzkLQkJYVAJLg6E0Fb84l2rsoQ7+XLrI5QDmG0gKwazIUZyhvCgJDmw0B7VG51JarCJWCxSCwLoUbJWCk9we/hErFEyguZNDplJdJ9sqoO5Qt+4nVhW4TE+V4eaVISGKkjl1QQa2Ie8RIyMAN7c/CTHeHhIe1ZqsQSlKCZSTQghIWQ4dy5y3Zh2vFdKlrQDLWoiShSVFCiCU5nAYiikOLc3pE/b+1FSN0qWxlqTmtRQpR9KEW5x02qhzmKDuiJRKizM6yXq+qOy7wlluSb6jf+I1TYDTSTsLhEKCVBi1iK3DFjHPaeBlMVzQGAYlVUgVNRbW5jthcUhJShAFS3CAyeEqqRSwteJk+YGiyFUrE3YGAksplTFkpOQngJ9lg4ANQHdqWMEuDxIyg2DPWjD6QEdK5AlzQEnhygpHshzQdjuRydtInYHETZ0kKJSlJcWJKmLENZjY1rW0VxodJZdLgNL9c0onqKgTLmAcQrkIDEECoBu/bHDY+wVInbxM1CpJBcCu8BBABHV7XfTtjjsBZU4msQnqCrM5rW7MGe3aakkmYpKUlSiwAcnsENpKrd48op2Ze6JG2nhc4HEUsQqjOSLdYEXrbQQDdIsDMVNOULmHKklkuRcB8gA9XlBdiNoomSM+bKFJuCxSeQa5B01ivlTwiSVEMopzLuSVZauS5J0gcqx0naZZBeediTJkiShK0JcC2ZiNADQjlBOcWEIK1lgkOW+nOBSdh5xSEmYLAElLqtXVie1vCOJxClqMpaiuWkBwWqrkfaYMWPMRxGambCcZQ+plvtnYQnr3iZgCVMVUfS6e8R46QzAVSgOvmLc8mU5vC3iBHAryJpNVLQLjhyjuzA5fCkVo2hLqZLrJLKmKclTcidPhSJJSLNZRvqZwvlW5Og0knZvR7y1SrZJdCDwqzFmLEOEs97v2VUWXQxEzPMmhOYsEOz3LkfAQo0Fw1haV/8g8oXoVv6L4ctQ2r98MFbw7pVEpsRctQXpCKvKadXLX2nf3Qs298zbL613y0tpD4iRp8gqmIQk5cjgLZ3BDkEUBBIHKwgb6VYmZh5yRm3iVJSRmoykrc5WoBUA3gsd/u/hm7uK3+YF+nmHyypablCzxWosVp3gRUxNJSjNzl3AkGsqNqDpO+F6TiYyJCfOKoN4QlKfi6+4ROQuapUtBlzBNTwqnEDdqQKlRL1e4TQgnk8Zxhp2RaV+ypKvcQfpG2hIaK1BDVBudpZ4hQXDMMuxvK3Z2IJQFKKWIcMCOG4Jcli1eyJipwIcWMDvSHCJkSnzTDKzAKljK2U+qCwVldgz0BPZHDZ2PmrlpCN0oAAZipQIpYpANR+qsT7VkORhrKYpZlzjac+kMiWFqUaFUtagQWIWnKAR35mPNh2xJ2Xt4EejUprmWZZ8cpWFDuYx5nYBGVSp5Mwlg4BDVAAQE1FSNST20EcMBsuTKJmSiTmDOVOGcEj3ge6FZHV82g/MnmUrYy9lbWwuISqXnSQUnMlQKaDrPmAtryge2SrDMpt2wKlMog5EPTr6M1dYrcbJzLmAWVNQkn2SZYJbkTwp/dFjI2DLJSpmKS+rHve+he7gRxnZyCQNIBVUbnWXOCmYeYhpZlLQk2TlUlJvaoGsPtHMUnIUhWhUHHwMVuI2YoL3iJikHLlOUJc1cPmBFKtTUxUJ2jOC5ktUxzLpmMvNnzBJQCEZQFB1B6A8MTapZbEQFO5uDHlTJgIQCE7k8KL5uE1KmdWYFVQAxNqQsftiYOESiCdSQRWnqmvdSIk3Y618S1st3JAq9Gq4ZmDMB4xIl4YzFkzFHMgBPDQKBc5quQakU5dsIAZtOcbdRrvOKJCQCufLCialaglQDWDNwAVs/aYeZJmGWlSzkJAAQgJoTYHMPgGYc4WC2qrLlSneEFQKlHKCAohNgXJS2jViDPm4hc9g982Uk5AnQ/R2c1jjEAWGs6ASdZbbOwEzKASnMHKVJdq+qQdPH5RIxOCWtJC1ADQJ58yTdtA1+cNgJ685CikJAFAC5JfUk0p8om4pYKSDUEMe6GKi2vFM7ZoHTsAJU0DrJyqN8qgxQAxcB3ZrXIrSLfCYBJZRVMUKEJWyWNw4CQS3bFXs8gzVFTlcvgdRKjQkFVTR+yLleLShJUosEgk9wiKZRGuW2nbFzEpSVKLAXNae6BlKgJizLTlQWYMwJrmU2ju2js+seh0iE+WZYQRMUghTtlANCbub2b+8ccRMZCjyST8Iu0aIe7NtK7lqZyczB7aG0Zk08SiUvRNgOVOfbF1spDSk9of3l4GYLZSGSEjQAfBobhhqTLPECFpqomgdFiqRhkEBzMKlHsY5RbsAMKLXCJ8lQlHWdI7GYAdrwosTLnRat9SVwkVL0f/i8JSt4N0ii03VYFqGoreEshX4eh9ZuGml7wlMRllUmjrEUP5q61ghFmcbkektm0pxXvaloqelKAMJNlqqsALzCtlBVzWwMW1Gyj0/PV7mtrRzxMpKpapUys1aVJD16wIFbRFxmUiMpPkqK3QgzIzGz7Fn58PJX7UtB8coeMXEar0GnZsFL5pzJ9yy3waM/BHvkeE3uNLekrdD+f/J76ays2Dm9gSfctJ+kZfhsUuWXQopPYf+vGt9IZWbCzk85S278paMegxy98HwkeD2akyHXWHnQbEHEKWqcorVKylAoAMwUCWSA5pc2eCLGbClTFFbrQoipQopzdpFie1ngR+zWa06annLB9ym/qjQ4sYdA1IZheZvEF7LEMF0Gn4gDt+YnCESUpzBacxUeI1UQpwrrlhcnlpHrZfSLDJSxVMH6wVfyvHH7Sh52UfyH4K/zAfFOsxWoQOU1MLgqdagrNe53mmpxEnEpUlBEwNxAO4Bt2jvgal4YyVLk5VFmmJLB1JzChs6gQBTmDrEz7MuvP/Sj5qg/ixTo9qoa8zMVbD1WpDUaTMdoSJwxMtctKiklIcOwTZQPLU1jvjgpCZqlIQpBckE3QEgM2VnoT4xZ/aHOMtMnISklSnKSUuwF2veAmbj5iklKlqINwdYRUy0mKi/WW8Pg3r01cEW29jLnZqU71SZfowB2hKnLpB7mLaeMd+kM1UqUCihKgHpZide6OXQtO8xORXVyKUw4RQgWFNYNdodHZM1BlqzseRDg6EOIKdFqiErK+J+BVCtM42NtCbNUoOkrCQSDw5kgs9BQhwLMXFmq+0tsrlkIUkBSrOpxdtA/yj30wwKdnZRhlKzzcwK15SpKUhJZLAAOTdjYQF4RRVNSVEklQJJLk17bwCgQbNHoqupqDb+oRIlqScwLrq70CnLnuraKzbW1VreU2UA1q7n+0XECmNW8xf6lfMxZrYemlmAiMC7VHObW0sOj6eJZ7APeT/aJ+1ltKX4D3kCIvR8cKj2ge4f5j3t5bSwOah8if7RYXSjF1e/i7eI+0pcKh1pHNQ9z1g32PJ3k+UjmsfNz8oD9kJeansc/BvrGg9C5YOIc+qhWX9ZZKfmY5hxZSYcRa9QL4Q6TN3HpeIqs1Wb9TQoSSE/iKk9V+KmtrQobKMSwE/h6n1m4qaXhKAAeV6U9YXP5qGgrCWnc1lcRNC/Ew/a0OpOQbxFVquk1AepoK3ghEwbMPT8tX1pa0MACMy/TaCxf1aWhFLDfD0t8unI0vat4QTmG9VSYKhNgSLUNfjBCZRtaUUT5qTQhaqeJI+EHX2aznkTE+zNPuKU/UGBHpgD5WtSgxWEqZiPVCdf0mL37MJ3HPRzShXuKgfmIy6HdxFvOelxvxMCG8AYeT0ZkqTzBHvDRiCY3J4x//APGLXNnMUolomKClrohLKIbtVySK2h2MUnLbxlTg9UU82Y9JZ/Z/MbGAe1LWP5Vf0xp7xk2H2lKwynw6DMmBxvZjgVDHKlJoG9okxwxe38VM609fck5B7kM8QpYhaSZTqY7FYB8VV7QaC3Pf2/uFvT3ZM2cqUZUsrypWDVIZylusR2wJTej2KSHMhXgyv5SYr1qepqe2vzh5U0pqklJ5gkfKK9SorsWIPv8A6l/D4erRphAwNvA/3DT7OJKkTJ4UlSTlRRQKTdXODyMjwPSXEy7TVKHJfGP4q+4wTbK6eIUycQjKfbQ5T4i48Hi7h69NVC3mRj8DiGqGrYHynP7TT+HH/s/ogGgy+0WeFjDLQQpBEziTVLnIwcUehp2GAyKmK1qGavDBbDj1/Jhb9m6PvEw8pRHvWn+0aKowBfZknzk88koHvKv7QdExfwY+GJg8VN8Q3p+JlP2vLedIHITPmgfSArZY86jvPyMFP2qTnxUscpWb/lMX/wDGBjY486nx+RiLa1PWW6WmF9DCR4EJhck8yfnBapTA90CaBE8UbWieFpfMfKEvR3C+ac6qNPh9I4dKABu0ge0fl/mLTYiWkI7ifeSYpulC3mpHJHzJ/sI7U0oj0kcOM2MJ6ExujeHClrPJIHvP+I0XoRhEgTlKIzOkIq1Q5+ZT7oBei6OBauam9w/zGl9F8InyfeEkKzKUBSrMB2moidEWpiV8e2au3hLZJCvxFD6r0praFCQjfVm8BFm4Xf8AU8KJyrEU+TV62anJm98Ip3Xnr5vVs2at4SB5PVfFmoG0bvhJTuzvVVSqwFw9RekEI2VvvPjl7+G/i9ofJn8/bLXLd8vb/iGysfKPVvl1rw90JSc53wolNSnXhv2QQgH9oK882VMZnQU3fqqf+uOf2eTmxje1LWn4pV/SYtPtHImSpU0BglZR70lX9MDXRKdlxsg/ny/8klP1jMqd2vfxE9LQ+Jw8jwP2ms47GIlS1TJhZKQ5+gHMk0EZXtLaSsVNAPAgr4UCycyqq/MouSTrF19oW1CqYnDpPChlK7VkUHgk/wAUC2FUy0H8yfmI7ia2Z8g2Ehw3CCnS7VvmO3gIeL6G4WUgrmzFsLqKkpA00TFPtXo1K3Kp+FnbxKKqSSlTAXYpAYgVYi0FvSGSqbh5stAdSk0FA5cHWmkDezNnrwmExS5zJMxGVKHBqykpdqOSrTQQ6rSUHKF0tv0lPD4qplzl+9e2XqPKUuxejs7EjMgJSh2zqcAnVmDq+XbFni+gs9IdCpcw+zVJPc9D4kQaSgJMoIQKS0MBzYfM/WBDo10pxE3EpRMUFIXmoEgZGSVBiKtRqk3iBw9JMqte5jlx2Jq5qlOwVeR6QTmyilRSoFKgWIIYgx4g+6ZbNQtcia15suXM0zIUoAO3K37uyLTEbFwEtDzJcpCbZlUvQVJhf+G2Yi+0sjiyZFJU3PIdRM62ftFUpwwXLV15auqofQ8lCoh9pYJKQmdKJVKWWD9aWq5QrtGh1FYIekXRmUJJxGEU6UhykKzpKdSkubXZzFBsfFJSpUqafNTWSv8AKfVWO1Jr3PCmQqcj+kfTrLUU1qX/AGH7zHKFH2ZppiFcyge4KP1gzmqYE9kCnQHDqlpxCFhlInZD4IBfuLuOwiCPGrZPfT6xqYYWpgTznEGzYhiPD8CY99pKnxg7JKB/Es/WKXYg87+0/SLL7QJj46Z2JQP4En6xX7BHnD+k/MQoa1fWaB0wvpL6YOCYr2UKPjlLQKQW42mHmHmk/GkCBMcxfzCHCh8Nj4w32clpUsfkT8hAz0gW89XYEj+EH6wVSwwA5AD4QHbWW86YfzEe6n0hlfRAInh3ers3gfzCLYCGkJ7ST8SB8AI03YmGeRLW7ZEinNuPwvGc7PS0qWPyD5Rp8uTnCVpomWAGNzlrpDlFlAmfWbNVY+JnsJ8pr1ctObv7oUJafKKo4ctC+r90KCQiQDLrP4gbPxMdb2hJdJzzKyj1QagPVNNKQkOfxNvVelderCDv530Pq8vy2raCEZi+8PofZ0aw4bXhyCTnRSULpsGHWprDVdj+H+Dafm6zQi7+b9B63JvWvWCEoenUsTMItcsMhCkEi3FmAdu5V4AthyyrESQL76We5lgk+4GNL6SSc2GnJkh0btRU3tAPrXQWjOOjB+9SzyEw+6UsiM7FL8VfSeh4Y98K46X/ABOW0MUZs2ZMfrrUrwJp8GEcM7V5Vjmk0i0wvR/FzBmRh5hB1ICX7s5DxUAZjpNcmnSQBiANtdIfbZxpRImrSWIQSDyJsfjGc43aE2a29mKU1nNB3AUBjrjjiZTypxmpBHVWVMR2OWI7or3h+IrlzzHhKeAwS0VJuGudD4TVNkbUE6UmYDVmUOStR/3Ro6YfCykKKkS0JUblKQCfdGXYTGTJRzS1lJ7Ne8WPjE5fSTEkNvW7koB+UWUxqWGcaiZ9Xg9XOezYZT5ww6TbRSDIlPxKnSlEckhYL+Jb4xZ9JMIqfh1ykNmJSQ5YUWCbA6AxmGEnEzkKUok7xBKiXPWFSTGh7ex6kYaZMlqZQZlBjdSRq4N4lSqioGZtv4icThGw70kQ6335XvIaML5FgJyZiwVTAq1sykhAAe9nPjyjPZszSO20NpzJpeYtSyOdh3Cw8IgPFKq4e1hYDabmFoGkGLm7MbnpNZ6C40TcMD66TkWdVFKUhJPM5AgP2RabQXUDlWAX7McY06bK0UgKHekt8lfCDGdMdRMauGbNTBnl+IUuzxDAbb+8x7pmp8dP/Uke6WkfSOWwBxK7h8489KJj4zEH/dUPcW+kdujKXUrvT/UYQmtX3l6vphvQS524Ww6x+kfxCBJAcgcyIKukR8we9PzgYwvXR+pPzERxGriT4bpQJ8T+IcwCYxbrWealH4mDl4A5PEpPaR8TDMTyERwz/m37zh/gUDPLSbZkg9zgRo63Uc0uksdYWBaqqa0gA2MAcRKzWzgnuBeD5Tv5n0XrcvzXrZosmZfOPMBmeg4QOs3C50teFDqcfhres1a6dbxhRGEZDzaT+EC3qudb3hJJWckyksdVVnagqaGkKWvyih4ctaVvDJXvTuTQJ1FzlpBCPV90fQ+12XHFa9ITlJ3aKyjdV2B61RQQ2Zz5NpbNrTihKXkO4FQqmbXighPOIRlBly+JCwQo9Znoai1IyjowtsVJzUdeQ96klHzVGsrXuOAcQVVzRtIxnaa1ScVNCbyp6in9swlPyEUsWNVbpNnhJzK6dR+/mFH2fbLSuauZMD7kJABtnL18Mp8SDpBP0i6XowyxLCDMWwJ4soSDarFzqzcoqei+JSnFYpA6s0InS+1CnUW7s4HgY5dJujU2fPM2UpHEA4WSGIAFGSXDAR1VZKXwxrfWcqNTq4r457thb2Egz5szamKSlPm5aEa8WRNMx0dRLDwHIwUyug+DCWImKPtFZB9yWT8Iquh2COGnz5SyCoy5SwRYh1gs/IsPdD7Qw2NO0ETEE7kFFc4CQhhnSUu5J4tNRWlBKfdzOtyTr4QrVianZ0XyoouNbX5yoxvRTd4uVIzky5xOVbDMGDkHTMKdhfwi+X0AwwAefMBNnMsAnuyV98We1JgMzCvfyin/AOmcT8BFP9p0lUyTJCEKWd6zJSVGqFaDujrYdEDG15FMZWqsiZ8ump/mD/SjowvCATM28lEtmAYpJsCH+Pyo48uXNCc2SYlB9bKoJI0qzGDraiFydi7rEek4QEkuR54KSnvSkfwxf7FwiZuzZMlXVXhkpPY6BXvDvC/8dWPd00vLY4i9Ond+93iL9QOcx14TwXfZ9sVEzET0T0JXuk5ClQcBediQ/wChVe2KTpXhUSsZPly05UJUnKK0dCSb9pMINMhA00aeLV6ppjcC/hO/Q3EFOLlt6wWn+BR+kaPGZ9D05sZLPshZ/gKfqI0oRo4TSn6zz/GCDXHlMV2yp8RPPOdNP/8ARUWfRYdY9v0/zFNjFvMWea1H3qJi86K2X3/QQul9SOxemH9pL6SnzP7h9YHMAPOy/wBaf5hF/wBJz5pP6x/KqKLZfppf6hHK31R6SeC0wpPnDGcpkqPIH5QE4Iecl/rT/MIMMcWlzP0K/lMCOzx52X+tPzEMr/MsRw7SlUP7tNG6OSwrEygqzl9PVUYPFEoOSXxSz1lXZ6GooKQC9GJebFS088w/gVBypW6O5FQrU3Gan0iwZkiOt5VJHEDf1m5WtChKX5PQcWataM0KIyUS1eU0HDlrWt4Slb0bkUKdbg5aQlkTaSeEi/quP23hEhY3cukwdZVnahqKmsEIszjyfW2bSnFaIc/a0qSFSFKzGoJQFLyvzCASGjptCa0paA4mhJ4xcNUkG75Xgfx2Nl4dSJZQySHJHqgkh21s5iriK5pbfeOpUw8v9m7RlhDS1bwKNw6cpsxCqg6secZR01wxlY6cg80l+boSfmTGjYLGSpM2dvNUy7DMxGdyWqAxRXsgC+0OWfKkqKgoLkoWFA5goEqAY60AiFR89IE7zR4aMmIIGxH+54wypi8IifLJE3CKKCoX3SuJJ7QklQa2Ul4mSunk8BlS5ZPPiHwcx3+zRb+UINQRLLGx9ID9IrelfRtWHUZksEyCe8yz7J7OR8DW53wgZD5y3eg1dqNUDqPXW05zOleIM5E7gBQCAkJoUqZwXLkUGtxF8j7QEtWQrNyCg3vZ/hAG8J4UteouxlupgMPUsCu3TSGOyNvTMVtDDlYCUpK8qBUB5S3JOp7fheNJEyMb6JTQnGSSSAAVVNBWWsfWDTpd0gVITKMlSSreOpNCFICS4LVAJIr2RaoVLIWbrMjH4XNWWnSFtNJTfaOmfvUqWrNJPowAwSW4geatXNxaxg52PiEy8LhwogDdyU19opSkDxJAgV210ows7BqzDMpYYSnZSVixfQA1za25iIHSHpDJmYNEqUslY3bjKpJGUXchqECxgzKjMwN7icNKrVpJSKkWJBNvvD3AYBMufPmp/wBbdk9hSFA+9we8mMn6XT82MxB/3CP+PD9IOtidLJUySgzJiEzrKSohLkesHNjenNtIzYoXiJ6sgzKmTFEeKiXPIC8cr5WVcvPWN4er06rmppYW9oS/Z9hOKZNNgAgd9FK+SffBwDFfsfBJkykS01AF/aJqT4n6RKxC2So8kk/CLdJMiATLxNbtqxbly8phyS4fnBN0V6iv1fQQMIsO6Cfov1D3n6RVo/PNHHfR9Z76UHzaf1/0qim2R6aX3/QxbdKDwI/UflFVsX06O8/yqjlX6o9JPDaYQ+RhNtI+ZmfoV8jApsz0sv8AWPnBRtM+ZmfoV8oFdmnzsv8AWPnE63ziJwH0H/eU0josnNiUJ9oKH8Bg8SrdDcmpVrYDNT6Rn/RpziZYBYkqA78io0FJCOCZxTD1VXZ6CpqKxYaZIjJV5NQ8WatKWhQkqEr03E9vWbne0KIyUZZB/DX9ZqU060ckYuWthJUDNNyPW9pieFVeUeMdIluiWhXBMU0xi7gJJCTyBI8ajWLGdhAtGWo5FNCkixTyIhDVGzWA2kwotcwZw650/wA4heQV48oPYwBHEWuTQGgBq3E4BMxSZGJGchLy1h0laQwUlTHrBwe0F6VgnxQRJlEhPChLBI7KADvoIpjgFLImTVkFNRlISlBIIobmhIc35RQqAhgG1PPpLCsCNNOk9bRWUpJQjMrQBhXmezuc8hGcdN0BIwgCwoCSZYNB1CAQRdJBNjUQbz8XMC1ygBMUlINHzLBdiAAQQzOaAEHmI4bMUCJiVy0zFLXnWlWZKZZyhASykuoslNwOeoETFRSTePoMaRDb2gp9neLCZ0wKLAy3fuUP7wbbVx4Th5syWUKyoUWPEksKgjUaRwwexZQUtYkS5ZJoEgMAALU1qXYXjhtfZRVmQhISJktaVqoADwhJPMgFbfSH06+RcttNdZGvlrVu08tPKB/keGxNZChh5p/0Zh82o/kVp3HwAis2jsudIPnZakj2mdP/ACFPjF7tDoeEoJQtSlAWIDK7OyLDoHil7hYKiQJjAEksMiaB7DshdILWbLsf3lNJsZ2KF1N1HI7+8BXhCNE23g8OJa5q8PLUUhzlAQT4prAj5TgTeROHct/mqOvh8hsSI2hxAVVuqH7SpJjyZkF+xNkYPEJUpMuYAksc6iHo/qqi+wuw8PLqmUhxqRmI8VOYYmELC9xEVuLIhK5Tf0mf7O2POn1Qjh1WqiQO838HixnYuVhkKl4dWeYoMufZh7KOXf8AE0bl0m2hMVOmSys5EqICbBhza/jFMo0hZITRfeOVGqgM+29h/J5zW9lhpMocpaB/CIW0ltJmnlLWf4THrC0Qgckp+QiLt5bYaef9mZ/IY1Nlnmd6vrMdEEvRo8HifpAzBH0fVwJ7z/aKdD5pr48/C9Z66Unhl95+Qit2EPPo/d/KYn9KT6P939MQej/ph3H5Rx/re0lQ0wZ8jCHaPopn6FfymBPZ587L/Wn5iDCegqSpIBJUCABUkkMAGuYk9Ffs+UyZ2KLKBBTISXVQv5xur+kV5kVEMrKSwtKuDrIlJsxk/o5hZqp6FSx1VXsO0V1bSD9LANN9L6uv6bUu8eJElCUAgBM0CiBRtAye6PaQFDNNpNHVFiWqmmtXhpN5ngWiSw/E39V6016sKGSy/wARwkdV+Fxr3w8cnZCwkkTMzKIlEsBwuoA3JI4Q9Q1bF9BdyEhKQHNNSST4k1MDuFnbgmTMISUk5SaBSHcEP2UPIiJeJWVy3OYS9CDlUo3BDiiQa2qW061CjULHX5uce628p16S4kJkkM5JDBwKg5hc2cAHvga2zgZ+KnJQgHdMkpWeoxAJU+pqzXoItyJqFGesZ0qSniTlSUAE0IUq1XcG5NBFzgsTmSFMUuHZTA+LEtCalPtXs9x/NpJGyC66yBsnZMrCSwjOHUesohJUdAK2DmnaecVKlFeJWsDKABLUlQ4yQSQosaXpdwX1ERunmBmzFpWhKpiCjLwgqYuTYaFxWJG0AZUqROX6RKZaJuuYFkl+ZSouD+rnEWfvFctgv3jApsGvcmWSBHmYIhSMcpSwMpSgpURmopRBTp6oqb1PINXnt1aTIXmAUwcAhwVAukdrqADdsOLC0gFN7TxjmAJNALk6RH6M7NTuEkJKTNWteatUmYpKCxp1Ak6RdK2NhgoSjIQpWiyHYmoOUuKRYhW5811s1Xsz8NqvaH0KBpvmJkKlUMmUQX6V7ImJkTEoG8KklgmpNRpzjJpiSklKgQoXBBBHeDUR9AP5PTrZv2s3v5xC2tsSQU/eJaZwNA4ylOtFCo8GhtWn2hvH4LGDDgqRodYB9AfQzD/u/wBCP7wTPHfDdGJeGkvJUcqlZwlVWzAUfVmF45zMOtICiksbHT3xYpiyASpiXFSqXGxmV7YU+InH/dX/ADGISzQ90d8ep5sw85iz71GOAD0jLO5nqk0pjymwIFB3RX9JD90xH/pX/KYsDFX0nP3Sf/61fKNVvlM8jT+oPOZLBBsY+aHefnA9F/sg+aHefmYq4f5prY/6XrF0oU+67lf0x66HbNmzpx3aSUpBClVypJZgTz7LwTYHoaqeqUrE5kSwCQgcK1gkN+hND2nRrxoeEw6MGkIQkZSKJSMoDe93e8SKE1M0QMUq4cUxub38JG2fsaXgwFo85MNCpQs4qwHVixKMg3wqo1KdK37YWTcec62ajWZ69vKPIRk+8XzVy2bN2/4hkoz0EON/698ulOHvsISU7wb1VFJsBYtUXrHkIf7z45e7hv4PaFl3vnrZPVu+XivpeCEdCN/VfDloG1fvhQijymvVy09p390KCEZKdzWbxg2biY/uZoSQUHerqhVk3IeooaWhbM85mz8TAM9WhYU5pq0KqlLsk2DGkEJzxOHzBS1PulAgpBqyhlta55xEkYWcpHEtJlDrEAiYtIuG6qSRQkHubSek+f3fqOeHTqv84bEHLOTLTRBIdOhe8KeirkEyQcgWEhSlzgCJUveSwWTxJSpI0SQosQLAgu1xqYcnATsUoKmFCEoUFCWCS6vVKlNoQ7AcqmLrHcCkJRwgioFHh9pnd5cnC7u1HZm+ZiH+MvzSfaEDScMfhkYlIlAEKQc2Z8pBAKSQU1esQZOw5OYJ84uck0VMWpSUkVJAdgeRZ4tdo8CEqRwqJqRc0MPiOGTvBRbDi1qQ8MyKdSJAMwFgYwWw3J9JbNpWore3ZCQrdjdr4lqsRUB6CprcGHl1kmYeux4taO0LZ/HLUtfEpJLE6MAR8YZIxkK3HpeLNZqs1+s3OEhJk8U3iBoAKtr6zQ+zfOBWfiZmerPHnZp3i1pXxACgNdYIRBJQd6qqFVCbkPUUNKQ7F99/p+zr7NrXrePOFOacqWqqASyTYMaQ/wDr7v1H6unVf5wQg7tfoVhcTmmy0bm5JRwlxUnLVJfwJ5wF4joHiUnNKAnywoOU8KwHuUk/ImNVxJyzUy00QWdIsXNYW0Tu1JCOEEVajxBqSmWqeNqoMt7jxg6oxV9J/wAJP/8AWqDTbmHQAGSNdIGem+ETLwkzK/FKVfTh05Q4m4MqUxZx5iZBs7ATZ8xMqSgrWqyR8SdAO00jXuivRCXhUhE9pmI0I9HLJqGepIfrEdwEW2wdhyMJhXkIZZy5phqtRJDufE0DAPQCLXD1kmYarALK1paEImXWXMViDUOXlEhe64JnEpVQRVnprW4hpZ3HpeLNZqs1+s3MR62aM6FKXxKBLE3FBDbL85n3nFlZnqzu/wAhDJUiSDKOeZxJVQAVbXVhaGCSk75VZZqE61tQ0+MLAca1pXxBILA1asNJOacZZ6gJZOlLQQnpiTvh6O+XWlDS1+2GUDMO8RRCbpNCWqaCloRLT92Oo44dOq/zhYk5ZiEJolWVwLFzWCEdYM6srgAu9HfueHjztRW7y7vhcF28IUEJ/9k=;" vertex="1" parent="7">
                    <mxGeometry x="600" y="90" width="154" height="169.83" as="geometry"/>
                </mxCell>
            </root>
        </mxGraphModel>
    </diagram>
</mxfile>